# ProBuilder 4.4.0
# https://unity3d.com/unity/features/worldbuilding/probuilder
# 2021/3/26 下午 09:04:21

mtllib ./Dummy.mtl
o Dummy

g Cone
v -0.6 -0.8 0
v -0.3 -0.8 0.5196153
v 0 0.8000001 0
v 0 -0.8 0
v 0.3000001 -0.8 0.5196152
v 0.6 -0.8 -5.245367E-08
v 0.3 -0.8 -0.5196153
v -0.3 -0.8 -0.5196153

vt 0 1.013681E-08
vt 0.6000001 0
vt 0.3 1.68226
vt -0.6 0
vt -0.3 0.5196153
vt 0.3000001 0.5196152
vt 0.3 -0.5196153
vt -0.3 -0.5196153

vn -0.8236778 0.3088792 0.4755507
vn 0 -1 0
vn 9.448342E-08 0.3088792 0.9511013
vn 0.823678 0.3088792 0.4755506
vn 0.8236778 0.3088792 -0.4755507
vn 0 0.3088792 -0.9511013
vn -0.8236778 0.3088792 -0.4755507

usemtl Lit
f 1/1/1 2/2/1 3/3/1
f 4/1/2 2/5/2 1/4/2
f 2/1/3 5/2/3 3/3/3
f 4/1/2 5/6/2 2/5/2
f 5/1/4 6/2/4 3/3/4
f 4/1/2 6/2/2 5/6/2
f 6/1/5 7/2/5 3/3/5
f 4/1/2 7/7/2 6/2/2
f 7/1/6 8/2/6 3/3/6
f 4/1/2 8/8/2 7/7/2
f 8/1/7 1/2/7 3/3/7
f 4/1/2 1/4/2 8/8/2

