# Blender v2.92.0 OBJ File: 'rock1+2+3_0605.blend'
# www.blender.org
mtllib rock1_0605.mtl
o Cube
v -1.348879 3.182148 -1.210559
v 2.432760 -0.955348 -1.557434
v -0.698657 3.308209 0.102740
v 1.795146 -0.957731 2.812234
v -2.277734 1.564547 -1.576492
v -2.574486 -0.958277 -2.404373
v -3.281955 2.120893 0.156524
v -4.499450 -0.956718 2.681059
v 0.770987 1.506581 -1.585561
v -3.655645 1.500165 1.622855
v -0.120795 2.722110 0.947454
v -2.742194 0.308706 -2.378308
v 1.599139 0.361926 -1.571497
v 0.922457 1.080547 1.681652
v -2.658340 -0.247662 -2.391340
v -4.307252 0.253322 2.184922
vt 0.625000 0.500000
vt 0.875000 0.500000
vt 0.875000 0.750000
vt 0.625000 0.750000
vt 0.500000 0.750000
vt 0.625000 1.000000
vt 0.500000 1.000000
vt 0.500000 0.000000
vt 0.625000 0.000000
vt 0.625000 0.250000
vt 0.500000 0.250000
vt 0.125000 0.500000
vt 0.375000 0.500000
vt 0.375000 0.750000
vt 0.125000 0.750000
vt 0.500000 0.500000
vt 0.437500 0.250000
vt 0.437500 0.500000
vt 0.437500 0.750000
vt 0.437500 0.000000
vt 0.437500 1.000000
vt 0.375000 1.000000
vt 0.375000 0.000000
vt 0.375000 0.250000
vn -0.5925 0.7687 -0.2410
vn -0.2762 0.8417 0.4639
vn -0.8880 0.2631 -0.3772
vn 0.0002 -1.0000 -0.0000
vn 0.6492 0.7299 -0.2138
vn 0.0044 0.3747 -0.9271
vn 0.1807 0.0963 -0.9788
vn 0.8252 0.5637 0.0353
vn -0.9283 0.1961 -0.3160
vn 0.0261 0.4122 0.9107
vn -0.0032 0.4472 0.8944
vn -0.9379 -0.0339 -0.3452
vn 0.8715 0.4790 0.1052
vn 0.1716 0.0771 -0.9821
usemtl Material
s off
f 1/1/1 5/2/1 7/3/1 3/4/1
f 11/5/2 3/4/2 7/6/2 10/7/2
f 10/8/3 7/9/3 5/10/3 12/11/3
f 6/12/4 2/13/4 4/14/4 8/15/4
f 9/16/5 1/1/5 3/4/5 11/5/5
f 12/11/6 5/10/6 1/1/6 9/16/6
f 15/17/7 12/11/7 9/16/7 13/18/7
f 13/18/8 9/16/8 11/5/8 14/19/8
f 16/20/9 10/8/9 12/11/9 15/17/9
f 14/19/10 11/5/10 10/7/10 16/21/10
f 4/14/11 14/19/11 16/21/11 8/22/11
f 8/23/12 16/20/12 15/17/12 6/24/12
f 2/13/13 13/18/13 14/19/13 4/14/13
f 6/24/14 15/17/14 13/18/14 2/13/14
