# Blender v2.92.0 OBJ File: 'rock1+2+3_0605.blend'
# www.blender.org
mtllib rock3_0605.mtl
o Cube.002
v 12.662361 -0.998203 2.853853
v 14.030370 2.630978 2.669565
v 13.153236 -0.985444 -3.521976
v 13.703622 3.050707 -2.854870
v 18.457924 -0.999203 3.082542
v 17.826220 2.208682 2.729104
v 18.606642 -0.984058 -3.683835
v 17.950682 2.922713 -2.777003
v 15.300721 -0.982417 -4.250802
v 15.607154 3.625856 -2.930298
v 15.433702 -0.999203 4.960584
v 16.425373 2.927154 2.950911
v 12.977951 -0.967830 -2.124526
v 12.977951 -0.982164 -0.669119
v 12.409480 -0.999203 1.570431
v 13.660438 2.222233 1.581369
v 13.554905 2.479862 0.058320
v 13.703622 3.050707 -1.342759
v 18.457924 -0.999203 1.570431
v 18.457924 -0.999203 0.058320
v 18.606642 -0.963162 -1.240692
v 17.748623 2.450907 -0.453461
v 17.776381 1.743708 0.178941
v 18.107954 1.034180 1.410652
v 15.212078 3.678182 -1.384086
v 16.075459 2.912012 0.039475
v 15.095458 3.090734 1.570464
v 15.433702 -0.978306 -1.499154
v 15.433702 -0.999203 0.058320
v 15.433702 -0.999203 1.570431
vt 0.375000 0.187500
vt 0.625000 0.187500
vt 0.625000 0.250000
vt 0.375000 0.250000
vt 0.375000 0.375000
vt 0.625000 0.375000
vt 0.625000 0.500000
vt 0.375000 0.500000
vt 0.375000 0.687500
vt 0.625000 0.687500
vt 0.625000 0.750000
vt 0.375000 0.750000
vt 0.375000 0.875000
vt 0.625000 0.875000
vt 0.625000 1.000000
vt 0.375000 1.000000
vt 0.250000 0.687500
vt 0.250000 0.750000
vt 0.750000 0.687500
vt 0.875000 0.687500
vt 0.875000 0.750000
vt 0.750000 0.750000
vt 0.125000 0.687500
vt 0.125000 0.750000
vt 0.125000 0.500000
vt 0.250000 0.500000
vt 0.250000 0.562500
vt 0.125000 0.562500
vt 0.250000 0.625000
vt 0.125000 0.625000
vt 0.750000 0.500000
vt 0.750000 0.562500
vt 0.625000 0.562500
vt 0.750000 0.625000
vt 0.625000 0.625000
vt 0.875000 0.500000
vt 0.875000 0.562500
vt 0.875000 0.625000
vt 0.375000 0.562500
vt 0.375000 0.625000
vt 0.375000 0.000000
vt 0.625000 0.000000
vt 0.625000 0.062500
vt 0.375000 0.062500
vt 0.625000 0.125000
vt 0.375000 0.125000
vn -0.9842 0.1668 -0.0603
vn 0.1536 0.2560 -0.9544
vn 0.9823 0.1860 0.0206
vn -0.4072 0.3697 0.8352
vn 0.0000 -1.0000 0.0000
vn -0.2963 0.9488 0.1098
vn 0.4437 0.7689 -0.4603
vn -0.0003 -1.0000 0.0002
vn 0.4481 0.2606 0.8551
vn -0.2218 0.2393 -0.9453
vn -0.0015 -1.0000 0.0052
vn -0.0024 -0.9999 -0.0117
vn -0.0025 -1.0000 -0.0049
vn 0.3341 0.9301 0.1524
vn 0.3564 0.8257 0.4373
vn 0.5430 0.7918 0.2796
vn -0.3336 0.9408 -0.0592
vn -0.2191 0.8593 0.4622
vn -0.3121 0.9478 -0.0649
vn 0.0015 -1.0000 0.0048
vn 0.0033 -0.9998 -0.0198
vn 0.9802 0.1890 0.0594
vn 0.9647 0.2198 0.1450
vn 0.9756 0.2102 -0.0635
vn -0.9174 0.3552 0.1795
vn -0.9571 0.2726 -0.0979
vn -0.9845 0.1746 -0.0155
usemtl None
s off
f 13/1/1 18/2/1 4/3/1 3/4/1
f 9/5/2 10/6/2 8/7/2 7/8/2
f 19/9/3 24/10/3 6/11/3 5/12/3
f 11/13/4 12/14/4 2/15/4 1/16/4
f 30/17/5 19/9/5 5/12/5 11/18/5
f 27/19/6 16/20/6 2/21/6 12/22/6
f 24/10/7 27/19/7 12/22/7 6/11/7
f 15/23/8 30/17/8 11/18/8 1/24/8
f 5/12/9 6/11/9 12/14/9 11/13/9
f 3/4/10 4/3/10 10/6/10 9/5/10
f 3/25/11 9/26/11 28/27/11 13/28/11
f 13/28/12 28/27/12 29/29/12 14/30/12
f 14/30/13 29/29/13 30/17/13 15/23/13
f 8/7/14 10/31/14 25/32/14 22/33/14
f 22/33/15 25/32/15 26/34/15 23/35/15
f 23/35/16 26/34/16 27/19/16 24/10/16
f 10/31/17 4/36/17 18/37/17 25/32/17
f 25/32/18 18/37/18 17/38/18 26/34/18
f 26/34/19 17/38/19 16/20/19 27/19/19
f 9/26/20 7/8/20 21/39/20 28/27/20
f 28/27/21 21/39/21 20/40/21 29/29/21
f 29/29/5 20/40/5 19/9/5 30/17/5
f 7/8/22 8/7/22 22/33/22 21/39/22
f 21/39/23 22/33/23 23/35/23 20/40/23
f 20/40/24 23/35/24 24/10/24 19/9/24
f 1/41/25 2/42/25 16/43/25 15/44/25
f 15/44/26 16/43/26 17/45/26 14/46/26
f 14/46/27 17/45/27 18/2/27 13/1/27
