# Blender v2.92.0 OBJ File: 'tree1+2+3_0605.blend'
# www.blender.org
mtllib tree1_0605.mtl
o Cube
v 10.171783 13.199747 -0.370202
v 10.533871 -0.985844 -0.744652
v 10.184874 13.199747 0.430414
v 10.559604 -0.985844 0.829308
v 9.410437 13.199747 -0.341405
v 9.037108 -0.985844 -0.688040
v 9.423526 13.199747 0.438267
v 9.062841 -0.985844 0.844748
v 8.666553 -0.985844 -0.016858
v 10.370743 13.199747 -0.000000
v 9.221949 13.199747 -0.000000
v 10.925013 -0.985844 -0.016858
v 9.795783 -0.985844 -1.146088
v 9.796346 13.199747 0.574398
v 9.795783 -0.985844 1.112372
v 9.796346 13.199747 -0.574398
v 9.795783 -0.985844 -0.016858
v 9.796346 13.199747 -0.000000
v 10.171783 6.622961 -0.370202
v 9.423526 6.622961 0.438267
v 10.184874 6.622961 0.430414
v 9.410437 6.622961 -0.341405
v 10.370743 6.622961 -0.000000
v 9.221949 6.622961 -0.000000
v 9.796346 6.622961 -0.574398
v 9.796346 6.622961 0.574398
v 10.171783 4.136706 -0.370202
v 10.184874 4.136706 0.430414
v 9.438127 4.118958 -0.333642
v 10.370743 4.136706 -0.000000
v 9.236871 4.149957 -0.001046
v 9.796346 4.136706 -0.574398
v 9.796346 4.136706 0.574398
v 9.423526 4.136706 0.438267
v 10.171783 3.927618 -0.370202
v 10.184874 3.927618 0.430414
v 9.395514 3.914368 -0.340360
v 10.370743 3.927618 -0.000000
v 9.194258 3.945367 -0.007763
v 9.796346 3.927618 -0.574398
v 9.796346 3.927618 0.574398
v 9.423526 3.927618 0.438267
v 8.467710 5.690959 0.157740
v 8.674695 5.626812 -0.166495
v 8.591667 5.435514 -0.181651
v 8.384683 5.499661 0.142584
v 10.171783 3.281391 -0.370202
v 10.113357 3.250213 0.401396
v 9.409410 3.267861 -0.320808
v 10.329983 3.281629 -0.013200
v 9.198868 3.296185 -0.006471
v 9.811754 3.278060 -0.547766
v 9.796346 3.281391 0.574398
v 9.423526 3.281391 0.438267
v 10.171783 3.033392 -0.370202
v 10.225635 3.033153 0.443613
v 9.383586 3.026468 -0.367152
v 10.442261 3.064569 0.029018
v 9.200637 3.047052 -0.005975
v 9.784890 3.035934 -0.594204
v 9.796346 3.033392 0.574398
v 9.423526 3.033392 0.438267
v 11.095243 5.366383 0.753006
v 10.867601 5.291096 1.155889
v 11.059899 5.158895 1.239839
v 11.287541 5.234180 0.836956
v 9.530465 5.503536 -1.407659
v 9.936536 5.511185 -1.627984
v 9.479691 5.279331 -1.498430
v 9.884649 5.286397 -1.718987
v 10.332978 0.932174 -0.536901
v 10.363756 0.932103 0.611900
v 9.236294 0.930125 -0.503338
v 10.638653 0.941398 0.001080
v 8.968390 0.936215 -0.009273
v 9.792706 0.932926 -0.834764
v 9.796095 0.932174 0.813894
v 9.262956 0.932174 0.619226
vt 0.750000 0.625000
vt 0.875000 0.625000
vt 0.875000 0.750000
vt 0.750000 0.750000
vt 0.500000 0.875000
vt 0.625000 0.875000
vt 0.625000 1.000000
vt 0.500000 1.000000
vt 0.500000 0.125000
vt 0.625000 0.125000
vt 0.625000 0.250000
vt 0.500000 0.250000
vt 0.250000 0.625000
vt 0.375000 0.625000
vt 0.375000 0.750000
vt 0.250000 0.750000
vt 0.500000 0.625000
vt 0.625000 0.625000
vt 0.625000 0.750000
vt 0.500000 0.750000
vt 0.500000 0.375000
vt 0.625000 0.375000
vt 0.625000 0.500000
vt 0.500000 0.500000
vt 0.250000 0.500000
vt 0.375000 0.500000
vt 0.500000 0.000000
vt 0.625000 0.000000
vt 0.750000 0.500000
vt 0.875000 0.500000
vt 0.125000 0.500000
vt 0.125000 0.625000
vt 0.125000 0.750000
vt 0.452746 0.750000
vt 0.452746 0.875000
vt 0.452746 0.250000
vt 0.452746 0.375000
vt 0.452746 0.000000
vt 0.452746 0.125000
vt 0.452746 0.500000
vt 0.452746 0.625000
vt 0.452746 1.000000
vt 0.448772 0.875000
vt 0.448772 1.000000
vt 0.452746 0.250000
vt 0.452746 0.125000
vt 0.448772 0.625000
vt 0.448772 0.750000
vt 0.448772 0.375000
vt 0.448772 0.500000
vt 0.448772 0.000000
vt 0.448772 0.125000
vt 0.448772 0.250000
vt 0.436489 0.750000
vt 0.436489 0.875000
vt 0.436489 0.250000
vt 0.436489 0.375000
vt 0.436489 0.000000
vt 0.436489 0.125000
vt 0.436489 0.500000
vt 0.436489 0.625000
vt 0.436489 1.000000
vt 0.448772 0.125000
vt 0.448772 0.250000
vt 0.431776 0.875000
vt 0.431776 1.000000
vt 0.431776 0.125000
vt 0.431776 0.250000
vt 0.431776 0.750000
vt 0.431776 0.625000
vt 0.431776 0.625000
vt 0.431776 0.750000
vt 0.431776 0.375000
vt 0.431776 0.500000
vt 0.431776 0.000000
vt 0.436489 0.250000
vt 0.431776 0.250000
vt 0.391798 0.750000
vt 0.391798 0.875000
vt 0.391798 0.250000
vt 0.391798 0.375000
vt 0.391798 0.000000
vt 0.391798 0.125000
vt 0.391798 0.500000
vt 0.391798 0.625000
vt 0.391798 1.000000
vt 0.436489 0.625000
vt 0.436489 0.750000
vt 0.436489 0.375000
vt 0.431776 0.375000
vt 0.375000 0.875000
vt 0.375000 1.000000
vt 0.375000 0.125000
vt 0.375000 0.250000
vt 0.375000 0.375000
vt 0.375000 0.000000
vn 0.0000 1.0000 0.0000
vn -0.3430 0.0000 0.9393
vn -0.8754 0.0000 -0.4833
vn 0.0000 -1.0000 0.0000
vn 0.9181 0.0000 0.3965
vn 0.4778 0.0000 -0.8785
vn 0.8808 0.0000 -0.4734
vn -0.9085 0.0000 0.4179
vn -0.5169 0.0000 -0.8561
vn 0.3475 0.0000 0.9377
vn -0.5370 -0.0043 -0.8436
vn -0.9145 -0.0028 0.4045
vn -0.8658 -0.0081 -0.5003
vn 0.8146 0.3609 0.4540
vn -0.9006 0.0859 0.4261
vn -0.5311 0.0684 -0.8446
vn 0.4079 -0.0420 0.9121
vn -0.4964 -0.0421 -0.8671
vn -0.8910 -0.0027 0.4540
vn 0.8973 -0.0238 -0.4407
vn 0.4607 -0.0128 -0.8875
vn 0.9004 -0.0900 0.4256
vn -0.8443 -0.0207 -0.5355
vn -0.7487 0.3686 -0.5509
vn 0.0537 -0.0721 0.9960
vn -0.0624 0.0748 -0.9952
vn -0.8094 -0.3796 -0.4481
vn -0.8578 0.0894 -0.5061
vn 0.8055 -0.4562 0.3782
vn 0.4727 0.0574 -0.8794
vn 0.8556 0.1619 -0.4917
vn -0.8932 -0.0027 0.4496
vn -0.9823 0.1190 0.1447
vn 0.3775 0.1737 0.9095
vn 0.3150 0.1019 0.9436
vn -0.5024 0.0938 -0.8595
vn -0.8954 0.1018 0.4336
vn 0.8461 0.0958 -0.5243
vn 0.4881 0.1036 -0.8666
vn 0.8971 0.0854 0.4334
vn -0.8794 0.0948 -0.4665
vn -0.3410 0.1065 0.9340
vn 0.4037 0.8307 0.3833
vn -0.8117 0.4404 -0.3837
vn 0.5007 0.1273 -0.8562
vn -0.5009 -0.1276 0.8560
vn -0.4390 0.4216 -0.7934
vn 0.4432 0.3713 0.8159
vn -0.4416 -0.3864 -0.8097
vn 0.9814 -0.1220 -0.1480
vn -0.3394 0.1447 0.9295
vn -0.8684 0.1372 -0.4765
vn 0.9069 0.1344 0.3994
vn 0.4751 0.1427 -0.8683
vn 0.8672 0.1380 -0.4784
vn -0.8980 0.1410 0.4167
vn -0.5101 0.1359 -0.8493
vn 0.3388 0.1423 0.9300
usemtl Material
s off
f 18/1/1 11/2/1 7/3/1 14/4/1
f 26/5/2 14/6/2 7/7/2 20/8/2
f 24/9/3 11/10/3 5/11/3 22/12/3
f 17/13/4 12/14/4 4/15/4 15/16/4
f 23/17/5 10/18/5 3/19/5 21/20/5
f 25/21/6 16/22/6 1/23/6 19/24/6
f 19/24/7 1/23/7 10/18/7 23/17/7
f 13/25/4 2/26/4 12/14/4 17/13/4
f 20/27/8 7/28/8 11/10/8 24/9/8
f 16/29/1 5/30/1 11/2/1 18/1/1
f 1/23/1 16/29/1 18/1/1 10/18/1
f 6/31/4 13/25/4 17/13/4 9/32/4
f 22/12/9 5/11/9 16/22/9 25/21/9
f 9/32/4 17/13/4 15/16/4 8/33/4
f 21/20/10 3/19/10 14/6/10 26/5/10
f 10/18/1 18/1/1 14/4/1 3/19/1
f 28/34/10 21/20/10 26/5/10 33/35/10
f 29/36/11 22/12/11 25/21/11 32/37/11
f 34/38/12 20/27/12 24/9/12 31/39/12
f 27/40/7 19/24/7 23/17/7 30/41/7
f 32/37/6 25/21/6 19/24/6 27/40/6
f 30/41/5 23/17/5 21/20/5 28/34/5
f 31/39/13 24/9/13 22/12/13 29/36/13
f 33/35/2 26/5/2 20/8/2 34/42/2
f 41/43/2 33/35/2 34/42/2 42/44/2
f 31/39/14 29/36/14 44/45/14 43/46/14
f 38/47/5 30/41/5 28/34/5 36/48/5
f 40/49/6 32/37/6 27/40/6 35/50/6
f 35/50/7 27/40/7 30/41/7 38/47/7
f 42/51/15 34/38/15 31/39/15 39/52/15
f 37/53/16 29/36/16 32/37/16 40/49/16
f 36/48/10 28/34/10 33/35/10 41/43/10
f 48/54/17 36/48/17 41/43/17 53/55/17
f 49/56/18 37/53/18 40/49/18 52/57/18
f 54/58/19 42/51/19 39/52/19 51/59/19
f 47/60/20 35/50/20 38/47/20 50/61/20
f 52/57/21 40/49/21 35/50/21 47/60/21
f 50/61/22 38/47/22 36/48/22 48/54/22
f 51/59/23 39/52/23 37/53/23 49/56/23
f 53/55/2 41/43/2 42/44/2 54/62/2
f 46/63/24 43/46/24 44/45/24 45/64/24
f 39/52/25 31/39/25 43/46/25 46/63/25
f 29/36/26 37/53/26 45/64/26 44/45/26
f 37/53/27 39/52/27 46/63/27 45/64/27
f 61/65/2 53/55/2 54/62/2 62/66/2
f 59/67/28 51/59/28 49/56/28 57/68/28
f 56/69/29 58/70/29 66/71/29 65/72/29
f 60/73/30 52/57/30 47/60/30 55/74/30
f 55/74/31 47/60/31 50/61/31 58/70/31
f 62/75/32 54/58/32 51/59/32 59/67/32
f 57/68/33 49/56/33 67/76/33 69/77/33
f 56/69/34 48/54/34 53/55/34 61/65/34
f 72/78/35 56/69/35 61/65/35 77/79/35
f 73/80/36 57/68/36 60/73/36 76/81/36
f 78/82/37 62/75/37 59/67/37 75/83/37
f 71/84/38 55/74/38 58/70/38 74/85/38
f 76/81/39 60/73/39 55/74/39 71/84/39
f 74/85/40 58/70/40 56/69/40 72/78/40
f 75/83/41 59/67/41 57/68/41 73/80/41
f 77/79/42 61/65/42 62/66/42 78/86/42
f 66/71/43 63/87/43 64/88/43 65/72/43
f 50/61/44 48/54/44 64/88/44 63/87/44
f 58/70/45 50/61/45 63/87/45 66/71/45
f 48/54/46 56/69/46 65/72/46 64/88/46
f 69/77/47 67/76/47 68/89/47 70/90/47
f 49/56/48 52/57/48 68/89/48 67/76/48
f 60/73/49 57/68/49 69/77/49 70/90/49
f 52/57/50 60/73/50 70/90/50 68/89/50
f 15/91/51 77/79/51 78/86/51 8/92/51
f 9/93/52 75/83/52 73/80/52 6/94/52
f 12/14/53 74/85/53 72/78/53 4/15/53
f 13/95/54 76/81/54 71/84/54 2/26/54
f 2/26/55 71/84/55 74/85/55 12/14/55
f 8/96/56 78/82/56 75/83/56 9/93/56
f 6/94/57 73/80/57 76/81/57 13/95/57
f 4/15/58 72/78/58 77/79/58 15/91/58
o Cone_Cone.001
v 10.889504 9.262408 -0.218974
v 8.892729 9.251799 0.136167
v 12.704214 8.583485 0.954983
v 9.841603 8.769344 2.748423
v 7.869339 8.453285 1.883686
v 7.205330 8.470765 -0.866690
v 10.695592 8.571638 -2.790192
v 9.872860 15.623583 0.018210
vt 0.293655 0.466545
vt 0.250000 0.250000
vt 0.462812 0.189521
vt 0.762422 0.012471
vt 0.586570 0.080719
vt 0.640167 0.235557
vt 0.862711 0.277431
vt 0.262422 0.012471
vt 0.086570 0.080719
vt 0.032858 0.309097
vt 0.793655 0.466545
vt 0.962812 0.189521
vt 0.532858 0.309097
vn 0.8457 0.2797 -0.4545
vn 0.1079 -0.9699 -0.2183
vn 0.5186 0.3144 0.7951
vn -0.4228 0.3370 0.8412
vn -0.9218 0.3160 0.2246
vn -0.4697 0.2788 -0.8377
vn -0.4818 -0.8365 0.2611
vn -0.2064 -0.9508 -0.2309
vn 0.2170 -0.9129 0.3458
vn 0.0506 -0.9655 0.2556
vn 0.4749 -0.8718 -0.1202
usemtl None
s off
f 85/97/59 86/98/59 81/99/59
f 82/100/60 83/101/60 80/102/60 79/103/60
f 81/99/61 86/98/61 82/104/61
f 82/104/62 86/98/62 83/105/62
f 86/98/63 84/106/63 83/105/63
f 84/106/64 86/98/64 85/97/64
f 79/103/65 85/107/65 81/108/65
f 79/103/66 81/108/66 82/100/66
f 80/102/67 84/109/67 85/107/67
f 79/103/68 80/102/68 85/107/68
f 80/102/69 83/101/69 84/109/69
o Cone.001_Cone.002
v 9.521734 7.507334 -0.495439
v 9.653527 11.042534 0.476329
v 7.236867 6.391678 0.495859
v 10.156035 6.386389 -2.847389
v 12.978587 6.848018 -1.645729
v 11.152639 7.213681 2.000567
v 11.380609 8.974631 1.537692
v 8.593682 9.173861 -1.277063
vt 0.254348 0.462756
vt 0.263338 0.254408
vt 0.447887 0.172817
vt 0.289665 0.150644
vt 0.164400 0.047349
vt 0.046524 0.281850
vt 0.234127 0.354625
vt 0.522622 0.293383
vt 0.761702 0.420498
vt 0.783524 0.172637
vt 0.664400 0.047349
vt 0.947887 0.172817
vn -0.3883 0.2056 0.8983
vn -0.7523 -0.0517 -0.6568
vn 0.8942 0.0019 0.4476
vn -0.1221 -0.9739 0.1913
vn 0.3069 -0.9010 -0.3066
vn 0.2456 0.5855 -0.7725
vn 0.7752 0.6309 -0.0323
vn -0.2415 0.2758 0.9304
vn -0.8864 0.4608 0.0447
vn 0.2391 0.5749 -0.7825
vn 0.5439 -0.6910 0.4760
usemtl None
s off
f 92/110/70 88/111/70 89/112/70
f 94/113/71 90/114/71 89/112/71
f 91/115/72 93/116/72 92/110/72
f 91/117/73 92/118/73 87/119/73 90/120/73
f 87/119/74 92/118/74 89/121/74
f 91/115/75 94/113/75 88/111/75
f 93/116/76 91/115/76 88/111/76
f 93/116/77 88/111/77 92/110/77
f 89/112/78 88/111/78 94/113/78
f 94/113/79 91/115/79 90/114/79
f 87/119/80 89/121/80 90/120/80
o Cone.002_Cone.004
v 10.718313 5.531304 -0.667984
v 9.747755 9.066504 -0.808415
v 10.393334 4.415648 -3.137331
v 12.805270 4.410359 0.588445
v 10.873970 4.871987 2.971902
v 6.568126 4.548897 0.228316
v 8.252499 6.998602 0.560348
v 11.724949 7.197831 -1.345405
vt 0.254348 0.462756
vt 0.263338 0.254408
vt 0.447887 0.172817
vt 0.289665 0.150644
vt 0.164400 0.047349
vt 0.046524 0.281850
vt 0.234127 0.354625
vt 0.522622 0.293383
vt 0.761702 0.420498
vt 0.783524 0.172637
vt 0.664400 0.047349
vt 0.947887 0.172817
vn -0.6294 0.2763 -0.7263
vn 0.8383 -0.0517 -0.5428
vn -0.5329 0.2572 0.8061
vn -0.0116 -0.9840 -0.1777
vn 0.2881 -0.8863 0.3625
vn 0.6752 0.5855 0.4485
vn -0.1821 0.6309 0.7542
vn -0.8211 0.5696 -0.0366
vn 0.2007 0.4608 -0.8645
vn 0.6866 0.5749 0.4450
vn -0.6072 -0.6910 0.3921
usemtl None
s off
f 100/122/81 96/123/81 97/124/81
f 102/125/82 98/126/82 97/124/82
f 99/127/83 101/128/83 100/122/83
f 99/129/84 100/130/84 95/131/84 98/132/84
f 95/131/85 100/130/85 97/133/85
f 99/127/86 102/125/86 96/123/86
f 101/128/87 99/127/87 96/123/87
f 101/128/88 96/123/88 100/122/88
f 97/124/89 96/123/89 102/125/89
f 102/125/90 99/127/90 98/126/90
f 95/131/91 97/133/91 98/132/91
