# ProBuilder 4.4.0
# https://unity3d.com/unity/features/worldbuilding/probuilder
# 2021/3/26 ä¸‹åˆ 10:03:58

mtllib ./EarlyBuild.mtl
o EarlyBuild

g Cube
v 0 0 0
v -1 0 0
v 0 1 0
v -1 1 0
v -1 0 -4
v -1 1 -4
v 0 0 -4
v 0 1 -4

vt 0 0
vt -1 0
vt 0 1
vt -1 1
vt -4 0
vt -4 1
vt 1 0
vt 1 1
vt 4 0
vt 4 1
vt 0 -4
vt 1 -4
vt -1 -4

vn 0 0 1
vn -1 0 0
vn 0 0 -1
vn 1 0 0
vn 0 1 0
vn 0 -1 0

usemtl Lit
f 3/3/1 4/4/1 2/2/1 1/1/1
f 4/3/2 6/6/2 5/5/2 2/1/2
f 6/8/3 8/3/3 7/1/3 5/7/3
f 8/10/4 3/3/4 1/1/4 7/9/4
f 8/11/5 6/12/5 4/7/5 3/1/5
f 1/1/6 2/2/6 5/13/6 7/11/6

