# Blender v3.0.0 OBJ File: 'backup.blend'
# www.blender.org
mtllib grass.mtl
o grass_V3.001_Cube.002
v -0.359707 0.777149 -0.427657
v -0.377888 0.987338 -0.602861
v -0.342695 0.735307 -0.508476
v -0.298620 0.750163 -0.506716
v -0.315577 0.791867 -0.426162
v -0.187923 0.084606 -0.201799
v 0.137072 0.038914 -0.165405
v 0.041115 0.015985 0.019053
v -0.253198 0.054264 0.002513
v -0.081151 0.392780 -0.089263
v -0.255944 0.324071 -0.090236
v -0.201594 0.564936 -0.231878
v -0.311080 0.529321 -0.236181
v -0.273884 0.690951 -0.342035
v -0.344680 0.684314 -0.353221
v -0.038230 0.287215 -0.293164
v -0.167699 0.481567 -0.392905
v -0.249516 0.631016 -0.457800
v -0.212943 0.218311 -0.294515
v -0.277087 0.445713 -0.397673
v -0.320222 0.624159 -0.469413
v -0.003904 1.122301 0.187327
v 0.145840 1.462308 0.235038
v 0.066056 1.133921 0.082627
v 0.117841 1.117524 0.115659
v 0.048109 1.105941 0.220017
v -0.093408 0.062225 -0.285726
v 0.206407 -0.005182 -0.092717
v 0.005722 -0.038516 0.207620
v -0.294235 0.028868 0.014822
v -0.012185 0.326413 0.209764
v -0.223913 0.377796 0.074346
v -0.010108 0.673248 0.209132
v -0.138536 0.715122 0.128404
v 0.013659 0.921133 0.209757
v -0.059939 0.969796 0.166383
v 0.164321 0.355731 -0.054388
v 0.129283 0.696400 0.000524
v 0.113870 0.937779 0.059785
v -0.047081 0.407167 -0.190294
v 0.001259 0.738342 -0.080806
v 0.040641 0.986503 0.015859
v 0.181967 0.639483 0.641959
v 0.148372 0.878330 0.767651
v 0.106439 0.623515 0.691679
v 0.081029 0.645050 0.659718
v 0.156310 0.660965 0.610160
v -0.055519 -0.122974 0.364523
v -0.198217 0.016401 0.192351
v 0.018439 0.062206 0.049725
v 0.161287 -0.077137 0.221796
v 0.082030 0.242612 0.233565
v 0.183607 0.146470 0.356592
v 0.129380 0.418894 0.407086
v 0.192936 0.366597 0.486348
v 0.149238 0.552259 0.527566
v 0.190025 0.536001 0.583856
v -0.108522 0.202325 0.359006
v -0.021104 0.387079 0.506151
v 0.041052 0.529386 0.598786
v -0.007297 0.106110 0.482266
v 0.042018 0.334690 0.585698
v 0.081442 0.513044 0.655338
v -0.412279 0.726839 0.381636
v -0.413141 0.974631 0.443181
v -0.406471 0.749643 0.325458
v -0.376002 0.750670 0.329133
v -0.381791 0.727941 0.385128
v -0.319619 0.037550 -0.016376
v -0.148556 0.060892 0.010852
v -0.165218 -0.004522 0.172003
v -0.336293 -0.027910 0.144888
v -0.247247 0.222116 0.244108
v -0.368662 0.208020 0.225986
v -0.318042 0.441724 0.308414
v -0.393628 0.439939 0.300064
v -0.359481 0.603587 0.351342
v -0.407334 0.618148 0.352478
v -0.232591 0.279649 0.102373
v -0.306469 0.487159 0.196482
v -0.351161 0.636251 0.270871
v -0.353980 0.265660 0.083989
v -0.382021 0.485505 0.187809
v -0.398983 0.650932 0.271712
v 0.433101 0.698822 -0.290383
v 0.457082 0.931080 -0.339499
v 0.362021 0.727804 -0.265960
v 0.348926 0.727613 -0.304280
v 0.419774 0.698726 -0.328623
v 0.118005 0.150800 -0.134151
v -0.044487 0.050809 -0.348946
v 0.086048 -0.069594 -0.309090
v 0.240124 0.008327 -0.116537
v 0.279044 0.223376 -0.376862
v 0.329158 0.214888 -0.221559
v 0.350564 0.429662 -0.343028
v 0.383778 0.430779 -0.248455
v 0.392205 0.582009 -0.328230
v 0.417578 0.597106 -0.272998
v 0.099711 0.296497 -0.315244
v 0.208941 0.487407 -0.294367
v 0.290389 0.623524 -0.293245
v 0.149494 0.288144 -0.159827
v 0.241745 0.488691 -0.199654
v 0.315388 0.638773 -0.237886
vt 0.575000 0.000000
vt 0.625000 0.250000
vt 0.575000 0.250000
vt 0.625000 0.500000
vt 0.575000 0.500000
vt 0.625000 0.750000
vt 0.575000 0.750000
vt 0.625000 1.000000
vt 0.575000 1.000000
vt 0.125000 0.500000
vt 0.375000 0.500000
vt 0.375000 0.750000
vt 0.125000 0.750000
vt 0.425000 0.750000
vt 0.425000 1.000000
vt 0.375000 1.000000
vt 0.475000 0.750000
vt 0.475000 1.000000
vt 0.525000 0.750000
vt 0.525000 1.000000
vt 0.425000 0.500000
vt 0.475000 0.500000
vt 0.525000 0.500000
vt 0.375000 0.250000
vt 0.425000 0.250000
vt 0.475000 0.250000
vt 0.525000 0.250000
vt 0.375000 0.000000
vt 0.425000 0.000000
vt 0.475000 0.000000
vt 0.525000 0.000000
vt 0.575000 0.000000
vt 0.625000 0.250000
vt 0.575000 0.250000
vt 0.625000 0.500000
vt 0.575000 0.500000
vt 0.625000 0.750000
vt 0.575000 0.750000
vt 0.625000 1.000000
vt 0.575000 1.000000
vt 0.125000 0.500000
vt 0.375000 0.500000
vt 0.375000 0.750000
vt 0.125000 0.750000
vt 0.425000 0.750000
vt 0.425000 1.000000
vt 0.375000 1.000000
vt 0.475000 0.750000
vt 0.475000 1.000000
vt 0.525000 0.750000
vt 0.525000 1.000000
vt 0.425000 0.500000
vt 0.475000 0.500000
vt 0.525000 0.500000
vt 0.375000 0.250000
vt 0.425000 0.250000
vt 0.475000 0.250000
vt 0.525000 0.250000
vt 0.375000 0.000000
vt 0.425000 0.000000
vt 0.475000 0.000000
vt 0.525000 0.000000
vt 0.575000 0.000000
vt 0.625000 0.250000
vt 0.575000 0.250000
vt 0.625000 0.500000
vt 0.575000 0.500000
vt 0.625000 0.750000
vt 0.575000 0.750000
vt 0.625000 1.000000
vt 0.575000 1.000000
vt 0.125000 0.500000
vt 0.375000 0.500000
vt 0.375000 0.750000
vt 0.125000 0.750000
vt 0.425000 0.750000
vt 0.425000 1.000000
vt 0.375000 1.000000
vt 0.475000 0.750000
vt 0.475000 1.000000
vt 0.525000 0.750000
vt 0.525000 1.000000
vt 0.425000 0.500000
vt 0.475000 0.500000
vt 0.525000 0.500000
vt 0.375000 0.250000
vt 0.425000 0.250000
vt 0.475000 0.250000
vt 0.525000 0.250000
vt 0.375000 0.000000
vt 0.425000 0.000000
vt 0.475000 0.000000
vt 0.525000 0.000000
vt 0.575000 0.000000
vt 0.625000 0.250000
vt 0.575000 0.250000
vt 0.625000 0.500000
vt 0.575000 0.500000
vt 0.625000 0.750000
vt 0.575000 0.750000
vt 0.625000 1.000000
vt 0.575000 1.000000
vt 0.125000 0.500000
vt 0.375000 0.500000
vt 0.375000 0.750000
vt 0.125000 0.750000
vt 0.425000 0.750000
vt 0.425000 1.000000
vt 0.375000 1.000000
vt 0.475000 0.750000
vt 0.475000 1.000000
vt 0.525000 0.750000
vt 0.525000 1.000000
vt 0.425000 0.500000
vt 0.475000 0.500000
vt 0.525000 0.500000
vt 0.375000 0.250000
vt 0.425000 0.250000
vt 0.475000 0.250000
vt 0.525000 0.250000
vt 0.375000 0.000000
vt 0.425000 0.000000
vt 0.475000 0.000000
vt 0.525000 0.000000
vt 0.575000 0.000000
vt 0.625000 0.250000
vt 0.575000 0.250000
vt 0.625000 0.500000
vt 0.575000 0.500000
vt 0.625000 0.750000
vt 0.575000 0.750000
vt 0.625000 1.000000
vt 0.575000 1.000000
vt 0.125000 0.500000
vt 0.375000 0.500000
vt 0.375000 0.750000
vt 0.125000 0.750000
vt 0.425000 0.750000
vt 0.425000 1.000000
vt 0.375000 1.000000
vt 0.475000 0.750000
vt 0.475000 1.000000
vt 0.525000 0.750000
vt 0.525000 1.000000
vt 0.425000 0.500000
vt 0.475000 0.500000
vt 0.525000 0.500000
vt 0.375000 0.250000
vt 0.425000 0.250000
vt 0.475000 0.250000
vt 0.525000 0.250000
vt 0.375000 0.000000
vt 0.425000 0.000000
vt 0.475000 0.000000
vt 0.525000 0.000000
vn -0.9774 -0.1788 -0.1131
vn 0.1480 -0.3287 -0.9328
vn 0.9444 0.3275 0.0292
vn -0.2296 0.6114 0.7573
vn -0.1168 -0.9763 -0.1822
vn -0.0543 0.2869 0.9564
vn -0.2099 0.5304 0.8214
vn -0.2018 0.5687 0.7974
vn -0.1957 0.5861 0.7862
vn 0.8524 0.4822 0.2022
vn 0.8496 0.5197 -0.0902
vn 0.8854 0.4618 -0.0527
vn 0.9249 0.3803 -0.0022
vn 0.0881 -0.4629 -0.8820
vn 0.1559 -0.3692 -0.9162
vn 0.1621 -0.3263 -0.9313
vn 0.1671 -0.3061 -0.9372
vn -0.9600 -0.1687 -0.2233
vn -0.9551 -0.2920 -0.0499
vn -0.9632 -0.2602 -0.0680
vn -0.9701 -0.2267 -0.0869
vn -0.7788 0.4097 -0.4750
vn 0.5737 0.2260 -0.7873
vn 0.8183 -0.2463 0.5194
vn -0.5060 0.1027 0.8564
vn -0.1049 -0.9783 -0.1787
vn -0.5449 -0.0324 0.8378
vn -0.5358 0.0026 0.8443
vn -0.5106 0.0380 0.8590
vn -0.4970 0.0532 0.8661
vn 0.8290 0.0374 0.5581
vn 0.8317 -0.0040 0.5553
vn 0.8329 -0.0812 0.5475
vn 0.8266 -0.1836 0.5320
vn 0.5595 0.1511 -0.8150
vn 0.5654 0.1855 -0.8037
vn 0.5850 0.2200 -0.7806
vn 0.5953 0.2346 -0.7685
vn -0.8171 0.2530 -0.5179
vn -0.8109 0.2870 -0.5100
vn -0.8032 0.3226 -0.5009
vn -0.7939 0.3591 -0.4906
vn 0.5672 -0.3196 0.7590
vn -0.7974 -0.0481 0.6015
vn -0.5515 0.4761 -0.6849
vn 0.8305 0.3463 -0.4362
vn -0.1728 -0.8307 -0.5292
vn 0.8310 0.2247 -0.5090
vn 0.8324 0.2567 -0.4911
vn 0.8232 0.3007 -0.4816
vn 0.8171 0.3212 -0.4787
vn -0.4896 0.7010 -0.5186
vn -0.5012 0.6717 -0.5456
vn -0.5205 0.6138 -0.5936
vn -0.5415 0.5307 -0.6521
vn -0.8111 -0.1224 0.5720
vn -0.8049 -0.0894 0.5867
vn -0.8057 -0.0437 0.5907
vn -0.8068 -0.0221 0.5903
vn 0.5525 -0.4701 0.6883
vn 0.5569 -0.4392 0.7050
vn 0.5609 -0.4058 0.7217
vn 0.5641 -0.3704 0.7380
vn -0.9953 0.0201 -0.0948
vn 0.0907 0.4638 -0.8813
vn 0.9859 0.0925 0.1395
vn -0.1019 -0.2401 0.9654
vn 0.1815 -0.9176 -0.3537
vn -0.1019 -0.3354 0.9366
vn -0.1019 -0.3112 0.9449
vn -0.0850 -0.2817 0.9557
vn -0.0749 -0.2682 0.9605
vn 0.9390 0.2736 0.2082
vn 0.9483 0.2476 0.1985
vn 0.9633 0.1988 0.1803
vn 0.9788 0.1334 0.1554
vn 0.0887 0.4128 -0.9065
vn 0.0884 0.4359 -0.8956
vn 0.1048 0.4634 -0.8799
vn 0.1145 0.4757 -0.8721
vn -0.9866 -0.0880 -0.1377
vn -0.9895 -0.0654 -0.1288
vn -0.9920 -0.0412 -0.1193
vn -0.9939 -0.0159 -0.1092
vn 0.3767 0.1543 0.9134
vn -0.8267 0.4879 0.2801
vn -0.3222 0.0074 -0.9466
vn 0.9315 -0.1647 -0.3242
vn -0.6069 -0.4383 0.6630
vn 0.7642 -0.5487 -0.3390
vn 0.9117 -0.2673 -0.3119
vn 0.9151 -0.2268 -0.3333
vn 0.9151 -0.2086 -0.3450
vn -0.0786 -0.0138 -0.9968
vn -0.2291 0.2344 -0.9448
vn -0.2603 0.1636 -0.9516
vn -0.2995 0.0675 -0.9517
vn -0.8406 0.3774 0.3886
vn -0.8447 0.4489 0.2916
vn -0.8323 0.4857 0.2671
vn -0.8270 0.5017 0.2536
vn 0.3075 0.2420 0.9203
vn 0.3365 0.0321 0.9411
vn 0.3486 0.0671 0.9349
vn 0.3607 0.1034 0.9270
usemtl Material.020
s 1
f 1/1/1 2/2/1 3/3/1
f 3/3/2 2/4/2 4/5/2
f 4/5/3 2/6/3 5/7/3
f 5/7/4 2/8/4 1/9/4
f 6/10/5 7/11/5 8/12/5 9/13/5
f 8/12/6 10/14/6 11/15/6 9/16/6
f 10/14/7 12/17/7 13/18/7 11/15/7
f 12/17/8 14/19/8 15/20/8 13/18/8
f 14/19/9 5/7/9 1/9/9 15/20/9
f 7/11/10 16/21/10 10/14/10 8/12/10
f 16/21/11 17/22/11 12/17/11 10/14/11
f 17/22/12 18/23/12 14/19/12 12/17/12
f 18/23/13 4/5/13 5/7/13 14/19/13
f 6/24/14 19/25/14 16/21/14 7/11/14
f 19/25/15 20/26/15 17/22/15 16/21/15
f 20/26/16 21/27/16 18/23/16 17/22/16
f 21/27/17 3/3/17 4/5/17 18/23/17
f 9/28/18 11/29/18 19/25/18 6/24/18
f 11/29/19 13/30/19 20/26/19 19/25/19
f 13/30/20 15/31/20 21/27/20 20/26/20
f 15/31/21 1/1/21 3/3/21 21/27/21
f 22/32/22 23/33/22 24/34/22
f 24/34/23 23/35/23 25/36/23
f 25/36/24 23/37/24 26/38/24
f 26/38/25 23/39/25 22/40/25
f 27/41/26 28/42/26 29/43/26 30/44/26
f 29/43/27 31/45/27 32/46/27 30/47/27
f 31/45/28 33/48/28 34/49/28 32/46/28
f 33/48/29 35/50/29 36/51/29 34/49/29
f 35/50/30 26/38/30 22/40/30 36/51/30
f 28/42/31 37/52/31 31/45/31 29/43/31
f 37/52/32 38/53/32 33/48/32 31/45/32
f 38/53/33 39/54/33 35/50/33 33/48/33
f 39/54/34 25/36/34 26/38/34 35/50/34
f 27/55/35 40/56/35 37/52/35 28/42/35
f 40/56/36 41/57/36 38/53/36 37/52/36
f 41/57/37 42/58/37 39/54/37 38/53/37
f 42/58/38 24/34/38 25/36/38 39/54/38
f 30/59/39 32/60/39 40/56/39 27/55/39
f 32/60/40 34/61/40 41/57/40 40/56/40
f 34/61/41 36/62/41 42/58/41 41/57/41
f 36/62/42 22/32/42 24/34/42 42/58/42
f 43/63/43 44/64/43 45/65/43
f 45/65/44 44/66/44 46/67/44
f 46/67/45 44/68/45 47/69/45
f 47/69/46 44/70/46 43/71/46
f 48/72/47 49/73/47 50/74/47 51/75/47
f 50/74/48 52/76/48 53/77/48 51/78/48
f 52/76/49 54/79/49 55/80/49 53/77/49
f 54/79/50 56/81/50 57/82/50 55/80/50
f 56/81/51 47/69/51 43/71/51 57/82/51
f 49/73/52 58/83/52 52/76/52 50/74/52
f 58/83/53 59/84/53 54/79/53 52/76/53
f 59/84/54 60/85/54 56/81/54 54/79/54
f 60/85/55 46/67/55 47/69/55 56/81/55
f 48/86/56 61/87/56 58/83/56 49/73/56
f 61/87/57 62/88/57 59/84/57 58/83/57
f 62/88/58 63/89/58 60/85/58 59/84/58
f 63/89/59 45/65/59 46/67/59 60/85/59
f 51/90/60 53/91/60 61/87/60 48/86/60
f 53/91/61 55/92/61 62/88/61 61/87/61
f 55/92/62 57/93/62 63/89/62 62/88/62
f 57/93/63 43/63/63 45/65/63 63/89/63
f 64/94/64 65/95/64 66/96/64
f 66/96/65 65/97/65 67/98/65
f 67/98/66 65/99/66 68/100/66
f 68/100/67 65/101/67 64/102/67
f 69/103/68 70/104/68 71/105/68 72/106/68
f 71/105/69 73/107/69 74/108/69 72/109/69
f 73/107/70 75/110/70 76/111/70 74/108/70
f 75/110/71 77/112/71 78/113/71 76/111/71
f 77/112/72 68/100/72 64/102/72 78/113/72
f 70/104/73 79/114/73 73/107/73 71/105/73
f 79/114/74 80/115/74 75/110/74 73/107/74
f 80/115/75 81/116/75 77/112/75 75/110/75
f 81/116/76 67/98/76 68/100/76 77/112/76
f 69/117/77 82/118/77 79/114/77 70/104/77
f 82/118/78 83/119/78 80/115/78 79/114/78
f 83/119/79 84/120/79 81/116/79 80/115/79
f 84/120/80 66/96/80 67/98/80 81/116/80
f 72/121/81 74/122/81 82/118/81 69/117/81
f 74/122/82 76/123/82 83/119/82 82/118/82
f 76/123/83 78/124/83 84/120/83 83/119/83
f 78/124/84 64/94/84 66/96/84 84/120/84
f 85/125/85 86/126/85 87/127/85
f 87/127/86 86/128/86 88/129/86
f 88/129/87 86/130/87 89/131/87
f 89/131/88 86/132/88 85/133/88
f 90/134/89 91/135/89 92/136/89 93/137/89
f 92/136/90 94/138/90 95/139/90 93/140/90
f 94/138/91 96/141/91 97/142/91 95/139/91
f 96/141/92 98/143/92 99/144/92 97/142/92
f 98/143/93 89/131/93 85/133/93 99/144/93
f 91/135/94 100/145/94 94/138/94 92/136/94
f 100/145/95 101/146/95 96/141/95 94/138/95
f 101/146/96 102/147/96 98/143/96 96/141/96
f 102/147/97 88/129/97 89/131/97 98/143/97
f 90/148/98 103/149/98 100/145/98 91/135/98
f 103/149/99 104/150/99 101/146/99 100/145/99
f 104/150/100 105/151/100 102/147/100 101/146/100
f 105/151/101 87/127/101 88/129/101 102/147/101
f 93/152/102 95/153/102 103/149/102 90/148/102
f 95/153/103 97/154/103 104/150/103 103/149/103
f 97/154/104 99/155/104 105/151/104 104/150/104
f 99/155/105 85/125/105 87/127/105 105/151/105
